<svg xmlns="http://www.w3.org/2000/svg" viewBox="0 0 2560 46" fill="#252737">
      <title>red_bottom</title>
        <g>
          <path
            d="M0,0V22H2v1H9l.5.5.5.5h2l.5.5.5.5h2l.5-.5L16,24h4l1,.5,1,.5h1l.5.5.5.5h5l2-.5,2-.5v1h1l1,.5,1,.5h5l7-.5,7-.5.5.5.5.5.5.5.5.5h7l.5.5.5.5,1-.5,1-.5h2l.5.5.5.5,1.5-.5L73,28l1,.5,1,.5H85l1,.5,1,.5,1,.5,1,.5,1.5-1L92,29h3l.5.5.5.5h12l1,.5,1,.5h11l.5.5.5.5v1h12l1,.5,1,.5h12l.5.5.5.5h15l1,.5,1,.5h23l.5.5.5.5h3l3.5.5,3.5.5V37h10l.5.5.5.5,1,.5,1,.5h4V38h2l1,.5,1,.5h3l.5-.5.5-.5.5-.5.5-.5.5.5.5.5,1,.5,1,.5h11l1.5.5,1.5.5h17l1,.5,1,.5h21l.5.5.5.5h2l.5-.5.5-.5,1,.5,1,.5h20l.5.5.5.5.5-.5.5-.5h6l1,.5,1,.5.5-.5.5-.5h10l.5.5.5.5h33l1,.5,1,.5,1-.5,1-.5h3l.5.5.5.5h5l.5-.5.5-.5,1,.5,1,.5h4l1-.5,1-.5h2l.5,1,.5,1h17l2.5-.5L411,44l2,1,2,1,.5-1,.5-1h9l1,1,1,1,1-1,1-1,1,.5,1,.5,1,.5,1,.5,1.5-1,1.5-1,1,.5,1,.5,1,.5,1,.5h3l1-1,1-1,4,.5,4,.5,1,.5,1,.5V45l2-.5,2-.5.5,1,.5,1,1-1,1-1h11l1,1,1,1,1-1,1-1h6l1,1,1,1,1-1,1-1,.5.5.5.5h42l1,.5,1,.5.5-.5.5-.5h8l.5-.5.5-.5,1,.5,1,.5h11l1-1,1-1,.5.5.5.5h8l1.5-.5L569,43l.5,1,.5,1,.5-1,.5-1h12l.5.5.5.5,1.5-.5L587,43l1,.5,1,.5,1.5-.5L592,43l9.5.5,9.5.5,2-.5,2-.5V42l1,.5,1,.5,2.5.5,2.5.5,1-1,1-1h2l.5.5.5.5,1,.5,1,.5,1.5-1,1.5-1,1,.5,1,.5,1,.5,1,.5h3l.5-1,.5-1h3l.5.5.5.5,1,.5,1,.5.5-1,.5-1h3a1.25,1.25,0,0,0,.13.5.9.9,0,0,0,.88.5,2.62,2.62,0,0,0,1.38-.5A4.51,4.51,0,0,0,653,42h2l1,.5,1,.5a5,5,0,0,1,1.13-.37A2,2,0,0,1,660,43a2,2,0,0,0,1.88.38A5,5,0,0,0,663,43l1-.5,1-.5,1.5.5,1.5.5h13l3,.5,3,.5,1-1,1-1h4l1.5.5,1.5.5,1-.5,1-.5h2l1,.5,1,.5,2-.5,2-.5,1,.5,1,.5,1-.5,1-.5,1.5.5,1.5.5,1-.5,1-.5h7l1,.5,1,.5,2-.5,2-.5h31l1-.5,1-.5,1.5.5,1.5.5,2.5-.5L769,41l2,.5,2,.5,1.5-.5L776,41h16l.5-.5.5-.5h17l1.5-.5L813,39l2,.5,2,.5,1-.5,1-.5h15l1-1,1-1,2.5,1,2.5,1h4l1-1,1-1,1.5,1,1.5,1,1.5-1,1.5-1,1,1,1,1,1-.5,1-.5,1.5-.5L860,37l2,.5,2,.5,1,.5,1,.5h3l2-1,2-1,2,.5,2,.5h1l2-.5,2-.5,2.5.5,2.5.5,2-.5,2-.5,8,.5,8,.5,1-.5,1-.5,1.5.5,1.5.5h4l3,.5,3,.5,3.5-1,3.5-1,5,.5,5,.5h3l1-.5,1-.5,6.5.5,6.5.5,4-1,4-1h30l.5-.5.5-.5h11a6,6,0,0,1,1.88.5c.63.25,1.13.5,1.13.5h3l2-.5,2-.5.5.5.5.5,1.5-.5,1.5-.5,3.5.5,3.5.5h7l1.5-.5,1.5-.5h17a1.25,1.25,0,0,0,.13.5.9.9,0,0,0,.88.5,2.62,2.62,0,0,0,1.38-.5,4.51,4.51,0,0,0,.63-.5h17a4.51,4.51,0,0,1,.63-.5A2.62,2.62,0,0,1,1077,34c.5,0,.5.25.5.5s0,.5.5.5a11.57,11.57,0,0,1,2.38.5c.88.25,1.63.5,1.63.5l1.5-.5,1.5-.5,1-.5,1-.5h5l.5.5.5.5h9a3.87,3.87,0,0,0,2-.5,3.87,3.87,0,0,1,2-.5h5l2,.5,2,.5.5-.5.5-.5h5v1h3l.5-.5.5-.5h11a10.51,10.51,0,0,1,1.25-.5A9,9,0,0,1,1140,33a5,5,0,0,1,2.25.5,3.09,3.09,0,0,1,.75.5h2l.5-.5.5-.5s.5-.25,1.13-.5a3.77,3.77,0,0,1,3.75,0c.63.25,1.13.5,1.13.5l.5.5.5.5,1-.5,1-.5.5-.5.5-.5h3l1.5.5,1.5.5.5.5.5.5h2l.5-.5.5-.5,1-.5,1-.5,1,.5,1,.5.5.5.5.5.5-.5.5-.5h28l1.5-.5,1.5-.5h1l1,.5,1,.5,1-1,1-1,.5,1,.5,1h8l.5-.5.5-.5,10.5-.5L1239,31h10l1-.5,1-.5h33l.5-.5.5-.5,1,.5,1,.5h2l.5-.5.5-.5h2v1h5l4-.5,4-.5,3-.5,3-.5h17l1-.5,1-.5h1l.5.5.5.5,1-.5,1-.5h3v1h5l.5-.5.5-.5,1-.5,1-.5h2v1h7l1-.5,1-.5h2l1.5.5,1.5.5h3l1.5-.5,1.5-.5h3a11.57,11.57,0,0,1,2.38.5c.88.25,1.63.5,1.63.5l.5-.5.5-.5h14l1-.5,1-.5h5l3.5.5,3.5.5,2.5-.5,2.5-.5h5l1-.5,1-.5h15l1.5-.5,1.5-.5h2l.5.5.5.5,1-.5,1-.5h2l1,.5,1,.5,1-.5,1-.5h4l1-.5,1-.5h2a2.62,2.62,0,0,1,1.38.5,4.51,4.51,0,0,1,.63.5h2a5,5,0,0,0,1.88-.87c.63-.37,1.13-.62,1.13-.12s3.5.5,7,.38,7-.37,7-.37l1.5-.5,1.5-.5,1.5.5,1.5.5h2l1-.5,1-.5,1.5.5,1.5.5,1.5-.5,1.5-.5,1.5.5,1.5.5,1-.5,1-.5h2l.5.5.5.5,3.5-.5,3.5-.5,2-.5,2-.5,1-.5,1-.5,5,.5,5,.5,2.5-.5,2.5-.5h2l.5.5.5.5,1.5-.5,1.5-.5,1,.5,1,.5.5-.5.5-.5h4l1,.5,1,.5,1-.5,1-.5h6l23-.5,23-.5,1-.5,1-.5,1,.5,1,.5,2.5.5,2.5.5h12l1-.5,1-.5,1,.5,1,.5,1-.5,1-.5h4l.5.5.5.5h5l1-.5,1-.5.5-.5.5-.5,2.5.5,2.5.5h4l2-.5,2-.5,1,.5,1,.5,1-.5,1-.5,1.5.5,1.5.5.5-.5.5-.5,2,.5,2,.5,1-.5,1-.5,2,.5,2,.5,1.5-.5,1.5-.5h4l.5.5.5.5,1.5-.5,1.5-.5h1l.5.5.5.5,17.5-.5L1713,17l1-.5,1-.5.5.5.5.5h17l2-.5,2-.5,1,.5,1,.5h1l2-.5,2-.5,3,.5,3,.5h3l.5-.5.5-.5h6l.5-.5.5-.5,1,.5,1,.5h7l.5-.5.5-.5,1,.5,1,.5h14l.5-.5.5-.5h2l1,.5,1,.5.5-.5.5-.5h3l1.5.5,1.5.5.5-.5.5-.5h3l1,.5,1,.5,1-.5,1-.5h14l1-.5,1-.5.5.5.5.5h4l1-.5,1-.5,1,.5,1,.5h4l1-.5,1-.5h48l2.5.5,2.5.5V14h12l1-.5,1-.5,1.5.5,1.5.5.5.5.5.5h5l1.5-.5,1.5-.5h4l2,.5,2,.5,1.5-.5,1.5-.5,1.5.5,1.5.5h10l1.5-.5,1.5-.5,1,.5,1,.5h13l1-.5,1-.5,1,.5,1,.5,1.5-.5,1.5-.5h3l.5.5.5.5h4V14h3l1,.5,1,.5h7l2-.5,2-.5h1l1.5.5,1.5.5,1-.5,1-.5h2l1.5.5,1.5.5h44l.5.5.5.5.5-.5.5-.5h4l.5.5.5.5.5-.5.5-.5h4a1.25,1.25,0,0,0,.13.5.9.9,0,0,0,.88.5h6V15l4.5-.5,4.5-.5,1,.5,1,.5h5l1.5.5,1.5.5h4l1-.5,1-.5h4l2.5.5,2.5.5h4l1-.5,1-.5,1,.5,1,.5,1-.5,1-.5h2l2,.5,2,.5h5l.5-.5.5-.5h5l1,.5,1,.5h13l1-.5,1-.5h13l2,.5,2,.5.5-.5.5-.5h3l1,.5,1,.5h1l1-.5,1-.5,1,.5,1,.5,1-.5,1-.5,1,.5,1,.5,2-.5,2-.5h3l1,.5,1,.5,2-.5,2-.5h3l1,.5,1,.5,1-.5,1-.5h4l2.5.5,2.5.5h6l2-.5,2-.5,3.5.5,3.5.5h11l.5.5.5.5.5-.5.5-.5h8l1.5.5,1.5.5,1.5-.5,1.5-.5h5l.5.5.5.5h13l1-.5,1-.5,1,.5,1,.5h25l1,.5,1,.5,1.5-.5,1.5-.5h7l1,.5,1,.5,1.5-.5,1.5-.5h7l1,.5,1,.5,1-.5,1-.5h2l.5.5.5.5h23l3.5.5,3.5.5,3.5.5,3.5.5h38l1,.5,1,.5,1-.5,1-.5h8l1.5.5,1.5.5h29l2,.5,2,.5,1-.5,1-.5h2l.5.5.5.5h21l1,.5,1,.5,2-.5,2-.5h4l.5.5.5.5.5-.5.5-.5h5l1,.5,1,.5h15l1.5.5,1.5.5,3.5.5,3.5.5,4-.5,4-.5h30l1,.5,1,.5.5.5.5.5V0H0Z">
          </path>
        </g>
</svg>